<mxfile host="app.diagrams.net" agent="Mozilla/5.0 (Macintosh; Intel Mac OS X 10_15_7) AppleWebKit/537.36 (KHTML, like Gecko) Chrome/130.0.0.0 Safari/537.36" version="24.8.4">
  <diagram name="Page-1" id="3A4A7q6FCsYmugk0itly">
    <mxGraphModel dx="2074" dy="1069" grid="1" gridSize="10" guides="1" tooltips="1" connect="1" arrows="1" fold="1" page="1" pageScale="1" pageWidth="850" pageHeight="1100" math="0" shadow="0">
      <root>
        <mxCell id="0" />
        <mxCell id="1" parent="0" />
        <mxCell id="yXli7-OI51wq3RtKHo3T-12" value="" style="endArrow=none;dashed=1;html=1;dashPattern=1 3;strokeWidth=2;rounded=0;" edge="1" parent="1">
          <mxGeometry width="50" height="50" relative="1" as="geometry">
            <mxPoint x="334" y="550" as="sourcePoint" />
            <mxPoint x="334" y="360" as="targetPoint" />
          </mxGeometry>
        </mxCell>
        <mxCell id="yXli7-OI51wq3RtKHo3T-1" value="" style="endArrow=none;html=1;rounded=0;" edge="1" parent="1">
          <mxGeometry width="50" height="50" relative="1" as="geometry">
            <mxPoint x="280" y="600" as="sourcePoint" />
            <mxPoint x="280" y="320" as="targetPoint" />
          </mxGeometry>
        </mxCell>
        <mxCell id="yXli7-OI51wq3RtKHo3T-2" value="" style="endArrow=none;html=1;rounded=0;" edge="1" parent="1">
          <mxGeometry width="50" height="50" relative="1" as="geometry">
            <mxPoint x="520" y="600" as="sourcePoint" />
            <mxPoint x="520" y="320" as="targetPoint" />
          </mxGeometry>
        </mxCell>
        <mxCell id="yXli7-OI51wq3RtKHo3T-3" value="" style="ellipse;whiteSpace=wrap;html=1;aspect=fixed;fillColor=#66B2FF;" vertex="1" parent="1">
          <mxGeometry x="277" y="357" width="8" height="8" as="geometry" />
        </mxCell>
        <mxCell id="yXli7-OI51wq3RtKHo3T-4" value="" style="ellipse;whiteSpace=wrap;html=1;aspect=fixed;fillColor=#66B2FF;" vertex="1" parent="1">
          <mxGeometry x="516" y="357" width="8" height="8" as="geometry" />
        </mxCell>
        <mxCell id="yXli7-OI51wq3RtKHo3T-5" value="" style="ellipse;whiteSpace=wrap;html=1;aspect=fixed;fillColor=#66B2FF;" vertex="1" parent="1">
          <mxGeometry x="277" y="550" width="8" height="8" as="geometry" />
        </mxCell>
        <mxCell id="yXli7-OI51wq3RtKHo3T-6" value="" style="ellipse;whiteSpace=wrap;html=1;aspect=fixed;fillColor=#66B2FF;" vertex="1" parent="1">
          <mxGeometry x="516" y="550" width="8" height="8" as="geometry" />
        </mxCell>
        <mxCell id="yXli7-OI51wq3RtKHo3T-9" value="" style="endArrow=none;html=1;rounded=0;" edge="1" parent="1">
          <mxGeometry width="50" height="50" relative="1" as="geometry">
            <mxPoint x="200" y="360" as="sourcePoint" />
            <mxPoint x="590" y="360" as="targetPoint" />
          </mxGeometry>
        </mxCell>
        <mxCell id="yXli7-OI51wq3RtKHo3T-10" value="" style="endArrow=none;html=1;rounded=0;" edge="1" parent="1">
          <mxGeometry width="50" height="50" relative="1" as="geometry">
            <mxPoint x="200" y="554" as="sourcePoint" />
            <mxPoint x="590" y="554" as="targetPoint" />
          </mxGeometry>
        </mxCell>
        <mxCell id="yXli7-OI51wq3RtKHo3T-11" value="" style="ellipse;whiteSpace=wrap;html=1;aspect=fixed;fillColor=#e51400;fontColor=#ffffff;strokeColor=#B20000;" vertex="1" parent="1">
          <mxGeometry x="330" y="410" width="8" height="8" as="geometry" />
        </mxCell>
        <mxCell id="yXli7-OI51wq3RtKHo3T-14" value="" style="ellipse;whiteSpace=wrap;html=1;aspect=fixed;fillColor=#f8cecc;strokeColor=#b85450;" vertex="1" parent="1">
          <mxGeometry x="330" y="355" width="8" height="8" as="geometry" />
        </mxCell>
        <mxCell id="yXli7-OI51wq3RtKHo3T-15" value="" style="ellipse;whiteSpace=wrap;html=1;aspect=fixed;fillColor=#f8cecc;strokeColor=#b85450;" vertex="1" parent="1">
          <mxGeometry x="330" y="551" width="8" height="8" as="geometry" />
        </mxCell>
        <mxCell id="yXli7-OI51wq3RtKHo3T-16" value="A" style="text;html=1;align=center;verticalAlign=middle;resizable=0;points=[];autosize=1;strokeColor=none;fillColor=none;" vertex="1" parent="1">
          <mxGeometry x="235" y="328" width="30" height="30" as="geometry" />
        </mxCell>
        <mxCell id="yXli7-OI51wq3RtKHo3T-17" value="B" style="text;html=1;align=center;verticalAlign=middle;resizable=0;points=[];autosize=1;strokeColor=none;fillColor=none;" vertex="1" parent="1">
          <mxGeometry x="485" y="328" width="30" height="30" as="geometry" />
        </mxCell>
        <mxCell id="yXli7-OI51wq3RtKHo3T-18" value="C" style="text;html=1;align=center;verticalAlign=middle;resizable=0;points=[];autosize=1;strokeColor=none;fillColor=none;" vertex="1" parent="1">
          <mxGeometry x="235" y="558" width="30" height="30" as="geometry" />
        </mxCell>
        <mxCell id="yXli7-OI51wq3RtKHo3T-19" value="D" style="text;html=1;align=center;verticalAlign=middle;resizable=0;points=[];autosize=1;strokeColor=none;fillColor=none;" vertex="1" parent="1">
          <mxGeometry x="485" y="558" width="30" height="30" as="geometry" />
        </mxCell>
        <mxCell id="yXli7-OI51wq3RtKHo3T-20" value="E" style="text;html=1;align=center;verticalAlign=middle;resizable=0;points=[];autosize=1;strokeColor=none;fillColor=none;" vertex="1" parent="1">
          <mxGeometry x="325" y="328" width="30" height="30" as="geometry" />
        </mxCell>
        <mxCell id="yXli7-OI51wq3RtKHo3T-21" value="F" style="text;html=1;align=center;verticalAlign=middle;resizable=0;points=[];autosize=1;strokeColor=none;fillColor=none;" vertex="1" parent="1">
          <mxGeometry x="325" y="558" width="30" height="30" as="geometry" />
        </mxCell>
      </root>
    </mxGraphModel>
  </diagram>
</mxfile>
